<svg width="160" height="160" viewBox="0 0 160 160" fill="none" xmlns="http://www.w3.org/2000/svg">
<circle cx="80" cy="80" r="73" stroke="black" stroke-width="14"/>
<path fill-rule="evenodd" clip-rule="evenodd" d="M104.937 63.5641C105.015 62.6685 105.056 61.7563 105.056 60.829C105.056 44.975 93.3082 33.5385 80.5 33.5385C67.6918 33.5385 55.9444 44.975 55.9444 60.829C55.9444 61.7563 55.9846 62.6685 56.0628 63.5641H104.937ZM45.0337 63.5641C44.9745 62.6607 44.9444 61.7487 44.9444 60.829C44.9444 39.6817 60.8632 22.5385 80.5 22.5385C100.137 22.5385 116.056 39.6817 116.056 60.829C116.056 61.7487 116.025 62.6607 115.966 63.5641H116.056V76.7188L80.6135 101.446L44.9444 77.7365V63.5641H45.0337ZM79.9196 105.788L44.9444 82.5396V121H116.056V81.5961L80.3981 106.474L79.9196 105.788Z" fill="black"/>
</svg>
